<?xml version="1.0" encoding="utf-8"?>
<!-- Generator: Adobe Illustrator 21.1.0, SVG Export Plug-In . SVG Version: 6.00 Build 0)  -->
<svg version="1.1" id="Слой_1" xmlns="http://www.w3.org/2000/svg" xmlns:xlink="http://www.w3.org/1999/xlink" x="0px" y="0px"
	 viewBox="0 0 64 64" style="enable-background:new 0 0 64 64;" xml:space="preserve">
<style type="text/css">
	.st0{fill:#171714;}
</style>
<g>
	<g>
		<path class="st0" d="M64,10.978c0-3.336-2.691-6.049-6-6.049h-6.348V2.017c0-1.115-0.895-2.017-2-2.017c-1.105,0-2,0.902-2,2.017
			v2.912H16.258V2.017c0-1.115-0.895-2.017-2-2.017s-2,0.902-2,2.017v2.912H6c-3.309,0-6,2.713-6,6.049v9.209
			c0,0.11,0.045,0.205,0.063,0.311C0.045,20.604,0,20.699,0,20.809c0,0.003,0.002,0.008,0.002,0.011C0.002,20.825,0,20.829,0,20.833
			v37.119C0,61.287,2.691,64,6,64h52c3.309,0,6-2.713,6-6.049V20.833c0-0.004-0.002-0.008-0.002-0.012
			c0-0.003,0.002-0.008,0.002-0.011c0-0.11-0.045-0.205-0.063-0.312C63.955,20.392,64,20.297,64,20.187V10.978z M60,57.951
			c0,1.111-0.897,2.016-2,2.016H6c-1.104,0-2-0.904-2-2.016V22.825h56V57.951z M60,18.792H4v-7.815C4,9.864,4.896,8.96,6,8.96h6.258
			v2.913c0,1.114,0.895,2.016,2,2.016s2-0.902,2-2.016V8.961h31.394v2.913c0,1.114,0.896,2.016,2,2.016c1.107,0,2-0.902,2-2.016
			V8.961H58c1.103,0,2,0.904,2,2.017V18.792z"/>
		<ellipse class="st0" cx="21.182" cy="33.828" rx="2" ry="2.016"/>
		<ellipse class="st0" cx="30.852" cy="33.828" rx="2" ry="2.016"/>
		<ellipse class="st0" cx="41.662" cy="33.828" rx="2" ry="2.016"/>
		<ellipse class="st0" cx="52.697" cy="33.828" rx="2" ry="2.016"/>
		<ellipse class="st0" cx="11.303" cy="40.806" rx="2" ry="2.016"/>
		<ellipse class="st0" cx="21.182" cy="40.806" rx="2" ry="2.016"/>
		<ellipse class="st0" cx="30.852" cy="40.806" rx="2" ry="2.016"/>
		<ellipse class="st0" cx="41.662" cy="40.806" rx="2" ry="2.016"/>
		<ellipse class="st0" cx="52.697" cy="40.806" rx="2" ry="2.016"/>
		<ellipse class="st0" cx="11.303" cy="47.755" rx="2" ry="2.016"/>
		<ellipse class="st0" cx="21.182" cy="47.755" rx="2" ry="2.016"/>
		<ellipse class="st0" cx="30.852" cy="47.755" rx="2" ry="2.016"/>
		<ellipse class="st0" cx="41.662" cy="47.755" rx="2" ry="2.016"/>
		<ellipse class="st0" cx="52.697" cy="47.755" rx="2" ry="2.016"/>
		<ellipse class="st0" cx="11.303" cy="54.734" rx="2" ry="2.016"/>
		<ellipse class="st0" cx="21.182" cy="54.734" rx="2" ry="2.016"/>
		<ellipse class="st0" cx="30.852" cy="54.734" rx="2" ry="2.016"/>
	</g>
</g>
</svg>
