<?xml version="1.0" encoding="utf-8"?>
<!-- Generator: Adobe Illustrator 21.1.0, SVG Export Plug-In . SVG Version: 6.00 Build 0)  -->
<svg version="1.1" id="Capa_1" xmlns="http://www.w3.org/2000/svg" xmlns:xlink="http://www.w3.org/1999/xlink" x="0px" y="0px"
	 viewBox="31.767 0 219.926 283.461" style="enable-background:new 31.767 0 219.926 283.461;" xml:space="preserve">
<g>
	<path d="M249.005,59.561l-3.769-3.768L195.9,6.456l-3.768-3.768C190.426,0.982,188.061,0,185.642,0H43.804
		c-5.796,0-12.037,4.477-12.037,14.3v176.303v80.82v2.262c0,4.092,4.115,8.079,8.983,9.335c0.244,0.063,0.479,0.157,0.733,0.206
		c0.762,0.15,1.54,0.234,2.321,0.234h195.852c0.781,0,1.559-0.084,2.321-0.234c0.255-0.049,0.489-0.143,0.733-0.206
		c4.867-1.256,8.982-5.243,8.982-9.335v-2.262v-80.82V68.314C251.693,64.565,251.244,61.799,249.005,59.561z M234.27,58.647h-41.224
		V17.423L234.27,58.647z M43.804,273.685c-0.347,0-0.66-0.127-0.967-0.239c-0.763-0.361-1.295-1.124-1.295-2.022v-71.047h200.377
		v71.047c0,0.898-0.532,1.656-1.295,2.022c-0.308,0.112-0.621,0.239-0.968,0.239H43.804z M41.541,190.603V14.3
		c0-1.06,0.161-4.525,2.263-4.525h139.751c-0.161,0.616-0.284,1.251-0.284,1.911v56.736h56.736c0.66,0,1.291-0.122,1.906-0.284
		c0,0.074,0.005,0.103,0.005,0.176v122.289H41.541z"/>
	<path d="M113.555,221.88c-2.072-2.18-4.677-3.934-7.82-5.244c-3.143-1.309-6.783-1.969-10.923-1.969H79.979v49.244h18.64
		c0.621,0,1.579-0.078,2.874-0.235c1.29-0.156,2.717-0.509,4.276-1.07c1.559-0.558,3.172-1.393,4.843-2.507
		c1.671-1.114,3.172-2.639,4.511-4.58c1.339-1.939,2.438-4.344,3.309-7.218c0.87-2.874,1.305-6.339,1.305-10.391
		c0-2.942-0.513-5.806-1.535-8.587C117.176,226.548,115.627,224.066,113.555,221.88z M107.71,252.817
		c-2.405,3.476-6.324,5.21-11.759,5.21h-7.952v-37.285h4.677c3.831,0,6.95,0.504,9.354,1.506c2.405,1.002,4.311,2.316,5.713,3.943
		c1.403,1.628,2.346,3.441,2.839,5.445c0.489,2.004,0.733,4.031,0.733,6.079C111.317,244.308,110.114,249.347,107.71,252.817z"/>
	<path d="M162.574,220.278c-1.848-2.097-4.008-3.685-6.48-4.78c-2.473-1.094-5.18-1.637-8.117-1.637s-5.645,0.543-8.118,1.637
		c-2.473,1.096-4.633,2.684-6.48,4.78c-1.848,2.097-3.299,4.712-4.345,7.849c-1.045,3.143-1.568,6.783-1.568,10.924
		c0,4.139,0.523,7.795,1.568,10.957c1.046,3.162,2.493,5.791,4.345,7.883c1.847,2.096,4.007,3.675,6.48,4.745
		c2.473,1.07,5.18,1.603,8.118,1.603s5.645-0.532,8.117-1.603c2.473-1.07,4.633-2.649,6.48-4.745
		c1.848-2.097,3.295-4.721,4.346-7.883c1.045-3.162,1.568-6.818,1.568-10.957c0-4.141-0.523-7.786-1.568-10.924
		C165.869,224.99,164.421,222.374,162.574,220.278z M159.265,247.773c-0.67,2.381-1.593,4.311-2.771,5.782
		c-1.182,1.471-2.516,2.531-4.007,3.171c-1.495,0.647-3.064,0.969-4.712,0.969c-1.602,0-3.133-0.342-4.578-1.037
		c-1.447-0.693-2.742-1.778-3.876-3.273c-1.134-1.496-2.028-3.416-2.673-5.781c-0.645-2.361-0.992-5.211-1.036-8.553
		c0.044-3.432,0.4-6.324,1.07-8.686c0.669-2.36,1.593-4.285,2.771-5.781c1.178-1.496,2.517-2.547,4.008-3.172
		c1.49-0.625,3.059-0.934,4.711-0.934c1.604,0,3.128,0.332,4.579,1.002c1.446,0.67,2.742,1.76,3.876,3.274
		c1.134,1.515,2.027,3.44,2.674,5.782c0.645,2.34,0.991,5.18,1.035,8.518C160.287,242.486,159.935,245.393,159.265,247.773z"/>
	<path d="M190.906,224.588c1.178-1.495,2.517-2.546,4.008-3.172c1.49-0.626,3.059-0.934,4.711-0.934c1.471,0,2.883,0.294,4.242,0.87
		c1.358,0.576,2.595,1.516,3.709,2.805l5.547-4.945c-1.828-1.779-3.9-3.118-6.211-4.008c-2.316-0.895-4.809-1.334-7.482-1.334
		c-2.898,0-5.592,0.543-8.084,1.637c-2.498,1.096-4.668,2.684-6.515,4.78c-1.847,2.097-3.299,4.712-4.345,7.849
		c-1.046,3.143-1.568,6.783-1.568,10.924c0,4.139,0.523,7.795,1.568,10.957c1.046,3.162,2.492,5.791,4.345,7.883
		c1.847,2.096,4.007,3.675,6.48,4.745c2.474,1.07,5.181,1.603,8.118,1.603c2.673,0,5.166-0.443,7.482-1.334
		c2.316-0.895,4.383-2.228,6.211-4.008l-5.547-4.877c-1.158,1.295-2.438,2.229-3.842,2.806c-1.402,0.577-2.907,0.87-4.51,0.87
		c-1.604,0-3.133-0.342-4.58-1.037c-1.447-0.693-2.742-1.778-3.875-3.273c-1.135-1.496-2.029-3.416-2.674-5.781
		c-0.645-2.361-0.992-5.211-1.036-8.553c0.044-3.432,0.401-6.324,1.07-8.686C188.798,228.014,189.722,226.083,190.906,224.588z"/>
	<path d="M65.978,68.421h29.324c2.698,0,4.887-2.189,4.887-4.887c0-2.698-2.189-4.887-4.887-4.887H65.978
		c-2.698,0-4.887,2.189-4.887,4.887C61.09,66.232,63.28,68.421,65.978,68.421z"/>
	<path d="M65.978,92.857h43.985c2.698,0,4.887-2.189,4.887-4.887c0-2.698-2.189-4.887-4.887-4.887H65.978
		c-2.698,0-4.887,2.19-4.887,4.887C61.09,90.668,63.28,92.857,65.978,92.857z"/>
	<path d="M129.512,92.857c1.271,0,2.542-0.538,3.47-1.417c0.879-0.929,1.417-2.199,1.417-3.47c0-1.271-0.538-2.541-1.417-3.47
		c-1.809-1.809-5.132-1.809-6.94,0c-0.88,0.929-1.418,2.199-1.418,3.47c0,1.271,0.538,2.542,1.418,3.47
		C126.971,92.32,128.241,92.857,129.512,92.857z"/>
	<path d="M149.061,92.857h39.098c2.698,0,4.888-2.189,4.888-4.887c0-2.698-2.189-4.887-4.888-4.887h-39.098
		c-2.698,0-4.888,2.19-4.888,4.887C144.173,90.668,146.363,92.857,149.061,92.857z"/>
	<path d="M62.508,157.809c-0.88,0.929-1.417,2.199-1.417,3.47c0,1.271,0.537,2.541,1.417,3.471c0.929,0.879,2.199,1.416,3.47,1.416
		c1.271,0,2.542-0.537,3.47-1.416c0.88-0.93,1.418-2.199,1.418-3.471c0-1.319-0.538-2.541-1.418-3.47
		C67.64,156.001,64.316,156.001,62.508,157.809z"/>
	<path d="M124.624,156.392H85.527c-2.698,0-4.887,2.189-4.887,4.887c0,2.697,2.189,4.887,4.887,4.887h39.098
		c2.698,0,4.887-2.189,4.887-4.887C129.512,158.582,127.322,156.392,124.624,156.392z"/>
	<path d="M217.482,83.083h-9.775c-2.698,0-4.888,2.19-4.888,4.887c0,2.698,2.189,4.887,4.888,4.887h9.775
		c2.698,0,4.888-2.189,4.888-4.887C222.37,85.272,220.18,83.083,217.482,83.083z"/>
	<path d="M65.978,117.294h107.52c2.697,0,4.887-2.189,4.887-4.887c0-2.698-2.189-4.887-4.887-4.887H65.978
		c-2.698,0-4.887,2.189-4.887,4.887C61.09,115.104,63.28,117.294,65.978,117.294z"/>
	<path d="M217.482,107.52h-29.323c-2.698,0-4.888,2.189-4.888,4.887c0,2.698,2.189,4.887,4.888,4.887h29.323
		c2.698,0,4.888-2.189,4.888-4.887C222.37,109.709,220.18,107.52,217.482,107.52z"/>
	<path d="M65.978,141.73h19.549c2.698,0,4.887-2.189,4.887-4.887c0-2.698-2.189-4.887-4.887-4.887H65.978
		c-2.698,0-4.887,2.189-4.887,4.887C61.09,139.54,63.28,141.73,65.978,141.73z"/>
	<path d="M153.949,131.956h-48.873c-2.698,0-4.887,2.189-4.887,4.887c0,2.698,2.189,4.887,4.887,4.887h48.873
		c2.697,0,4.887-2.189,4.887-4.887C158.835,134.145,156.646,131.956,153.949,131.956z"/>
	<path d="M217.482,131.956h-43.984c-2.698,0-4.888,2.189-4.888,4.887c0,2.698,2.189,4.887,4.888,4.887h43.984
		c2.698,0,4.888-2.189,4.888-4.887C222.37,134.145,220.18,131.956,217.482,131.956z"/>
</g>
</svg>
