<?xml version="1.0" encoding="utf-8"?>
<!-- Generator: Adobe Illustrator 21.1.0, SVG Export Plug-In . SVG Version: 6.00 Build 0)  -->
<svg version="1.1" id="Capa_1" xmlns="http://www.w3.org/2000/svg" xmlns:xlink="http://www.w3.org/1999/xlink" x="0px" y="0px"
	 viewBox="0 0 283.46 283.461" style="enable-background:new 0 0 283.46 283.461;" xml:space="preserve">
<g>
	<path d="M99.31,136.897c-10.729-12.118-25.034-18.789-40.289-18.789s-29.56,6.671-40.284,18.789
		c-21.789,24.618-21.789,64.667,0,89.285l40.284,45.509l40.285-45.509C121.099,201.564,121.099,161.515,99.31,136.897z
		 M92.233,219.917l-33.208,37.516l-33.212-37.516c-18.737-21.16-18.737-55.596,0-76.756c8.905-10.063,20.702-15.605,33.207-15.605
		s24.307,5.542,33.207,15.605C110.965,164.322,110.965,198.753,92.233,219.917z"/>
	<path d="M230.296,115.779l30.539-34.421c16.432-18.52,16.432-48.642,0-67.161C252.709,5.041,241.863,0,230.292,0
		c-11.565,0-22.412,5.041-30.538,14.197c-16.432,18.519-16.432,48.642,0,67.161L230.296,115.779z M206.822,20.471
		c6.307-7.11,14.641-11.022,23.471-11.022c8.834,0,17.168,3.912,23.475,11.022c13.361,15.056,13.361,39.557,0,54.613l-23.471,26.461
		l-23.475-26.461C193.461,60.027,193.461,35.527,206.822,20.471z"/>
	<path d="M248.519,257.556c-2.547-0.571-5.074,1.025-5.646,3.572c-0.543,2.409-1.596,4.625-3.131,6.576
		c-1.611,2.051-1.262,5.021,0.793,6.633c0.869,0.68,1.895,1.011,2.915,1.011c1.403,0,2.787-0.618,3.718-1.805
		c2.381-3.023,4.082-6.595,4.923-10.337C252.662,260.656,251.066,258.128,248.519,257.556z"/>
	<path d="M151.156,146.455c-2.047-0.005-4.035-0.369-5.916-1.087c-2.418-0.921-5.163,0.293-6.099,2.731
		c-0.926,2.438,0.297,5.168,2.73,6.098c2.958,1.125,6.071,1.701,9.274,1.706h1.686c2.613,0,4.725-2.112,4.725-4.724
		c0-2.613-2.111-4.725-4.725-4.725H151.156z"/>
	<path d="M139.939,116.578c0.855,0,1.715-0.231,2.495-0.713c2.093-1.304,4.407-2.103,6.869-2.377
		c2.594-0.288,4.464-2.622,4.181-5.215c-0.283-2.594-2.604-4.446-5.215-4.181c-3.884,0.43-7.531,1.687-10.838,3.751
		c-2.215,1.379-2.886,4.294-1.507,6.51C136.821,115.789,138.361,116.578,139.939,116.578z"/>
	<path d="M85.34,274.011h-9.449c-2.612,0-4.724,2.111-4.724,4.725c0,2.612,2.112,4.725,4.724,4.725h9.449
		c2.613,0,4.724-2.112,4.724-4.725C90.064,276.123,87.948,274.011,85.34,274.011z"/>
	<path d="M170.042,188.973c-0.406,0-0.808,0.01-1.209,0.028c-2.607,0.104-4.63,2.306-4.525,4.914c0.099,2.541,2.196,4.53,4.715,4.53
		c0.065,0,0.132,0,0.197-0.005l9.256-0.02c2.612,0,4.725-2.111,4.725-4.724c0-2.612-2.112-4.725-4.725-4.725H170.042z"/>
	<path d="M167.681,113.384h9.448c2.612,0,4.724-2.111,4.724-4.724s-2.111-4.724-4.724-4.724h-9.448
		c-2.613,0-4.725,2.111-4.725,4.724S165.068,113.384,167.681,113.384z"/>
	<path d="M225.719,188.973c-2.612,0-4.725,2.112-4.725,4.725c0,2.612,2.112,4.724,4.725,4.724h9.448
		c2.613,0,4.725-2.111,4.725-4.724c0-2.612-2.111-4.725-4.725-4.725H225.719z"/>
	<path d="M242.599,151.179c0-2.613-2.111-4.725-4.725-4.725h-9.448c-2.612,0-4.725,2.111-4.725,4.725
		c0,2.611,2.112,4.724,4.725,4.724h9.448C240.483,155.903,242.599,153.79,242.599,151.179z"/>
	<path d="M197.373,198.421h9.449c2.613,0,4.725-2.111,4.725-4.724c0-2.612-2.111-4.725-4.725-4.725h-9.449
		c-2.611,0-4.724,2.112-4.724,4.725C192.649,196.31,194.765,198.421,197.373,198.421z"/>
	<path d="M205.476,113.384c2.611,0,4.724-2.111,4.724-4.724s-2.112-4.724-4.724-4.724h-9.449c-2.613,0-4.725,2.111-4.725,4.724
		s2.111,4.724,4.725,4.724H205.476z"/>
	<path d="M171.734,146.455c-2.612,0-4.725,2.111-4.725,4.725c0,2.611,2.112,4.724,4.725,4.724h9.449
		c2.612,0,4.725-2.112,4.725-4.724c0-2.613-2.112-4.725-4.725-4.725H171.734z"/>
	<path d="M214.253,151.179c0-2.613-2.111-4.725-4.725-4.725h-9.449c-2.611,0-4.724,2.111-4.724,4.725
		c0,2.611,2.112,4.724,4.724,4.724h9.449C212.136,155.903,214.253,153.79,214.253,151.179z"/>
	<path d="M280.748,168.337c-0.415-2.58-2.848-4.342-5.414-3.916c-2.579,0.41-4.332,2.839-3.916,5.414
		c0.133,0.84,0.208,1.695,0.199,2.607c0,1.588-0.228,3.156-0.672,4.668c-0.732,2.504,0.699,5.131,3.208,5.863
		c0.444,0.127,0.888,0.188,1.327,0.188c2.047,0,3.932-1.333,4.536-3.397c0.694-2.376,1.049-4.838,1.049-7.289
		C281.074,171.115,280.97,169.722,280.748,168.337z"/>
	<path d="M198.724,274.011h-9.448c-2.612,0-4.725,2.111-4.725,4.725c0,2.612,2.112,4.725,4.725,4.725h9.448
		c2.613,0,4.725-2.112,4.725-4.725C203.449,276.123,201.332,274.011,198.724,274.011z"/>
	<path d="M170.378,274.011h-9.449c-2.612,0-4.724,2.111-4.724,4.725c0,2.612,2.111,4.725,4.724,4.725h9.449
		c2.612,0,4.725-2.112,4.725-4.725C175.103,276.123,172.986,274.011,170.378,274.011z"/>
	<path d="M222.351,236.216c0-2.612-2.112-4.725-4.725-4.725h-9.449c-2.612,0-4.724,2.112-4.724,4.725
		c0,2.613,2.111,4.725,4.724,4.725h9.449C220.234,240.941,222.351,238.83,222.351,236.216z"/>
	<path d="M194.005,236.216c0-2.612-2.112-4.725-4.725-4.725h-9.449c-2.612,0-4.725,2.112-4.725,4.725
		c0,2.613,2.112,4.725,4.725,4.725h9.449C191.888,240.941,194.005,238.83,194.005,236.216z"/>
	<path d="M226.735,274.011h-9.118c-2.612,0-4.725,2.111-4.725,4.725c0,2.612,2.112,4.725,4.725,4.725l9.313-0.006l0.137-4.724v4.724
		c2.612,0,4.559-2.111,4.559-4.724C231.624,276.123,229.347,274.011,226.735,274.011z"/>
	<path d="M243.45,249.062c1.02,0,2.056-0.33,2.915-1.011c2.055-1.616,2.404-4.587,0.793-6.634c-2.376-3.018-5.441-5.513-8.877-7.219
		c-2.348-1.166-5.173-0.207-6.335,2.127c-1.162,2.338-0.208,5.173,2.126,6.335c2.188,1.082,4.143,2.674,5.654,4.602
		C240.662,248.443,242.046,249.062,243.45,249.062z"/>
	<path d="M261.468,187.693c-2.027,0.851-4.172,1.28-6.387,1.28h-1.017c-2.612,0-4.724,2.112-4.724,4.725
		c0,2.612,2.111,4.724,4.724,4.724h1.017c3.477,0,6.854-0.68,10.039-2.017c2.408-1.011,3.538-3.78,2.527-6.185
		C266.641,187.816,263.854,186.682,261.468,187.693z"/>
	<path d="M132.418,141.045c2.476-0.817,3.827-3.486,3.014-5.967c-0.543-1.658-0.822-3.392-0.822-5.14
		c0.005-0.713,0.047-1.427,0.132-2.121c0.326-2.589-1.507-4.956-4.096-5.277c-2.669-0.297-4.956,1.517-5.277,4.096
		c-0.132,1.068-0.203,2.154-0.208,3.279c0,2.778,0.435,5.508,1.29,8.116c0.657,1.989,2.504,3.251,4.488,3.251
		C131.431,141.281,131.932,141.21,132.418,141.045z"/>
	<path d="M113.686,274.011h-9.449c-2.613,0-4.725,2.111-4.725,4.725c0,2.612,2.112,4.725,4.725,4.725h9.449
		c2.612,0,4.724-2.112,4.724-4.725C118.411,276.123,116.294,274.011,113.686,274.011z"/>
	<path d="M161.204,239.023c1.796,0,3.505-1.025,4.3-2.76c1.081-2.375,0.042-5.178-2.33-6.26c-2.215-1.016-4.223-2.541-5.801-4.422
		c-1.682-1.998-4.658-2.258-6.656-0.576c-1.999,1.678-2.259,4.658-0.577,6.657c2.476,2.942,5.622,5.343,9.105,6.931
		C159.88,238.881,160.546,239.023,161.204,239.023z"/>
	<path d="M268.087,149.941c-3.373-1.956-7.059-3.104-10.947-3.411c-2.594-0.189-4.875,1.733-5.078,4.342
		c-0.203,2.603,1.738,4.876,4.342,5.079c2.466,0.193,4.805,0.921,6.945,2.163c0.746,0.435,1.563,0.638,2.366,0.638
		c1.63,0,3.218-0.846,4.091-2.353C271.115,154.146,270.345,151.254,268.087,149.941z"/>
	<path d="M142.032,274.011h-9.449c-2.612,0-4.724,2.111-4.724,4.725c0,2.612,2.112,4.725,4.724,4.725h9.449
		c2.613,0,4.725-2.112,4.725-4.725C146.757,276.123,144.64,274.011,142.032,274.011z"/>
	<path d="M153.8,211.834c0.469-2.429,1.451-4.673,2.925-6.676c1.545-2.097,1.097-5.055-1.007-6.604
		c-2.102-1.54-5.055-1.096-6.604,1.006c-2.311,3.146-3.86,6.676-4.598,10.498c-0.491,2.561,1.186,5.036,3.752,5.532
		c0.297,0.057,0.6,0.085,0.893,0.085C151.382,215.665,153.361,214.093,153.8,211.834z"/>
	<path d="M231.459,70.865c14.323,0,25.983-11.66,25.983-25.984c0-14.324-11.66-25.984-25.983-25.984
		c-14.324,0-25.983,11.66-25.983,25.984C205.476,59.205,217.135,70.865,231.459,70.865z M231.459,28.346
		c9.118,0,16.535,7.417,16.535,16.535c0,9.118-7.417,16.535-16.535,16.535s-16.536-7.418-16.536-16.535
		C214.923,35.763,222.346,28.346,231.459,28.346z"/>
	<path d="M59.021,146.455c-15.633,0-28.346,12.713-28.346,28.346s12.713,28.346,28.346,28.346s28.346-12.713,28.346-28.346
		S74.654,146.455,59.021,146.455z M59.021,193.698c-10.422,0-18.897-8.476-18.897-18.898c0-10.422,8.475-18.897,18.897-18.897
		s18.897,8.476,18.897,18.897C77.918,185.222,69.443,193.698,59.021,193.698z"/>
</g>
</svg>
