<?xml version="1.0" encoding="utf-8"?>
<!-- Generator: Adobe Illustrator 21.1.0, SVG Export Plug-In . SVG Version: 6.00 Build 0)  -->
<svg version="1.1" id="Capa_1" xmlns="http://www.w3.org/2000/svg" xmlns:xlink="http://www.w3.org/1999/xlink" x="0px" y="0px"
	 viewBox="31.767 0 219.926 283.461" style="enable-background:new 31.767 0 219.926 283.461;" xml:space="preserve">
<g>
	<path d="M248.999,59.561l-6.65-6.651L195.9,6.456c-0.004-0.005-0.004-0.005-0.01-0.005l-3.763-3.768
		C190.392,0.953,188.09,0,185.642,0H43.804c-5.801,0-12.037,4.477-12.037,14.3v176.303v80.82v2.262c0,4.092,4.11,8.074,8.973,9.33
		c0.249,0.068,0.489,0.162,0.743,0.211c0.762,0.15,1.54,0.234,2.321,0.234h195.852c0.781,0,1.559-0.084,2.321-0.234
		c0.255-0.049,0.493-0.143,0.743-0.211c4.862-1.256,8.973-5.238,8.973-9.33v-2.262v-80.82V68.314
		C251.693,64.565,251.238,61.794,248.999,59.561z M193.046,17.423l41.224,41.224h-41.224V17.423z M43.804,273.685
		c-0.347,0-0.66-0.121-0.967-0.239c-0.758-0.361-1.295-1.124-1.295-2.022v-71.047h200.377v71.047c0,0.898-0.538,1.661-1.295,2.022
		c-0.308,0.118-0.621,0.239-0.968,0.239H43.804z M41.541,190.603V14.3c0-1.06,0.161-4.525,2.263-4.525h139.751
		c-0.161,0.616-0.284,1.251-0.284,1.911v56.736h56.731c0.66,0,1.296-0.122,1.911-0.284c0,0.074,0.005,0.103,0.005,0.176v122.289
		H41.541z"/>
	<polygon points="74.271,220.146 88.972,220.146 88.972,263.912 97.056,263.912 97.056,220.146 111.756,220.146 111.756,214.667 
		74.271,214.667 	"/>
	<polygon points="148.04,214.667 138.617,234.71 137.952,234.71 129.263,214.667 120.109,214.667 133.407,239.988 120.91,263.912 
		130.201,263.912 138.617,245.334 139.286,245.334 147.106,263.912 156.392,263.912 143.895,239.988 157.193,214.667 	"/>
	<polygon points="165.477,220.146 180.177,220.146 180.177,263.912 188.261,263.912 188.261,220.146 202.962,220.146 
		202.962,214.667 165.477,214.667 	"/>
	<path d="M65.978,68.421h29.324c2.703,0,4.887-2.189,4.887-4.887c0-2.698-2.185-4.887-4.887-4.887H65.978
		c-2.703,0-4.887,2.189-4.887,4.887C61.09,66.232,63.275,68.421,65.978,68.421z"/>
	<path d="M65.978,92.857h43.985c2.703,0,4.887-2.189,4.887-4.887c0-2.698-2.185-4.887-4.887-4.887H65.978
		c-2.703,0-4.887,2.19-4.887,4.887C61.09,90.668,63.275,92.857,65.978,92.857z"/>
	<path d="M129.512,92.857c1.271,0,2.542-0.538,3.47-1.417c0.879-0.929,1.417-2.199,1.417-3.47c0-1.271-0.538-2.541-1.417-3.47
		c-1.809-1.809-5.132-1.809-6.891,0c-0.929,0.929-1.466,2.15-1.466,3.47c0,1.32,0.533,2.542,1.418,3.47
		C126.966,92.32,128.241,92.857,129.512,92.857z"/>
	<path d="M149.061,92.857h39.098c2.702,0,4.888-2.189,4.888-4.887c0-2.698-2.186-4.887-4.888-4.887h-39.098
		c-2.702,0-4.888,2.19-4.888,4.887C144.173,90.668,146.359,92.857,149.061,92.857z"/>
	<path d="M62.508,157.809c-0.885,0.929-1.417,2.199-1.417,3.47c0,1.271,0.533,2.541,1.417,3.471c0.924,0.879,2.199,1.416,3.47,1.416
		c1.271,0,2.542-0.537,3.47-1.416c0.88-0.93,1.418-2.199,1.418-3.471c0-1.27-0.538-2.541-1.418-3.421
		C67.64,156.001,64.316,156.001,62.508,157.809z"/>
	<path d="M124.624,156.392H85.527c-2.703,0-4.887,2.189-4.887,4.887c0,2.697,2.185,4.887,4.887,4.887h39.098
		c2.703,0,4.887-2.189,4.887-4.887C129.512,158.582,127.327,156.392,124.624,156.392z"/>
	<path d="M217.482,83.083h-9.775c-2.702,0-4.888,2.19-4.888,4.887c0,2.698,2.186,4.887,4.888,4.887h9.775
		c2.703,0,4.888-2.189,4.888-4.887C222.37,85.272,220.185,83.083,217.482,83.083z"/>
	<path d="M65.978,117.294h107.52c2.702,0,4.887-2.189,4.887-4.887c0-2.698-2.185-4.887-4.887-4.887H65.978
		c-2.703,0-4.887,2.189-4.887,4.887C61.09,115.104,63.275,117.294,65.978,117.294z"/>
	<path d="M217.482,107.52h-29.323c-2.702,0-4.888,2.189-4.888,4.887c0,2.698,2.186,4.887,4.888,4.887h29.323
		c2.703,0,4.888-2.189,4.888-4.887C222.37,109.709,220.185,107.52,217.482,107.52z"/>
	<path d="M65.978,141.73h19.549c2.703,0,4.887-2.189,4.887-4.887c0-2.698-2.185-4.887-4.887-4.887H65.978
		c-2.703,0-4.887,2.189-4.887,4.887C61.09,139.54,63.275,141.73,65.978,141.73z"/>
	<path d="M153.949,131.956h-48.873c-2.703,0-4.887,2.189-4.887,4.887c0,2.698,2.185,4.887,4.887,4.887h48.873
		c2.702,0,4.887-2.189,4.887-4.887C158.835,134.145,156.651,131.956,153.949,131.956z"/>
	<path d="M217.482,131.956h-43.984c-2.703,0-4.888,2.189-4.888,4.887c0,2.698,2.185,4.887,4.888,4.887h43.984
		c2.703,0,4.888-2.189,4.888-4.887C222.37,134.145,220.185,131.956,217.482,131.956z"/>
</g>
</svg>
