<?xml version="1.0" encoding="utf-8"?>
<!-- Generator: Adobe Illustrator 21.1.0, SVG Export Plug-In . SVG Version: 6.00 Build 0)  -->
<svg version="1.1" id="Layer_1" xmlns="http://www.w3.org/2000/svg" xmlns:xlink="http://www.w3.org/1999/xlink" x="0px" y="0px"
	 viewBox="0 10.409 283.46 262.641" style="enable-background:new 0 10.409 283.46 262.641;" xml:space="preserve">
<g>
	<g>
		<path d="M173.489,59.456c-5.489-6.173-14.05-9.713-23.486-9.713c-16.853,0-31.917,11.507-33.583,25.667
			c-0.747,6.476,1.263,12.759,5.659,17.691c5.401,6.06,13.885,9.535,23.278,9.535c17.291,0,32.133-11.275,33.792-25.651
			C179.896,70.626,177.886,64.402,173.489,59.456z M165.633,75.409c-0.851,7.382-10.138,13.619-20.276,13.619
			c-5.436,0-10.341-1.862-13.121-4.981c-1.831-2.054-2.604-4.435-2.301-7.063c0.855-7.262,10.231-13.634,20.066-13.634
			c5.474,0,10.453,1.925,13.32,5.149C164.58,69.913,166.004,72.259,165.633,75.409z"/>
	</g>
</g>
<g>
	<g>
		<path d="M167.06,204.558c-1.701-1.142-5.682-3.811-2.469-22.347c0.082-0.404,0.405-1.898,0.906-4.221
			c1.141-5.291,3.265-15.138,5.572-26.12c0.006-0.023,0.012-0.049,0.016-0.074c2.357-11.868,0.492-22.25-5.391-30.024
			c-5.31-7.019-13.717-11.322-23.669-12.115c-14.719-1.178-30.117,7.606-34.833,16.253c-2.181,3.831-1.137,6.942-0.314,8.464
			c1.019,1.882,2.505,2.938,3.59,3.708c1.672,1.187,5.588,3.965,1.87,22.462c-0.348,1.692-5.536,28.07-6.222,31.814
			c-0.005,0.025-0.009,0.051-0.014,0.076c-2.044,11.925-0.023,22.347,6.174,29.873c9.979,12.119,25.167,11.537,25.762,11.537
			c14.155,0,28.306-8.793,32.614-17.207c2.08-3.887,0.956-6.969,0.093-8.469C169.679,206.315,168.165,205.298,167.06,204.558z
			 M157.744,149.113c-2.297,10.93-4.412,20.737-5.549,26.01c-0.773,3.584-0.93,4.311-0.984,4.609
			c-0.004,0.024-0.01,0.049-0.014,0.074c-3.454,19.855,0.042,28.545,4.99,33.406c-1.352,1.207-3.203,2.51-5.496,3.691
			c-4.509,2.326-9.503,3.529-13.709,3.308c-6.128-0.327-10.994-2.538-14.072-6.393c-3.585-4.489-4.761-11.074-3.403-19.045
			c0.74-4.029,5.935-30.414,6.153-31.464c0.004-0.022,0.009-0.046,0.014-0.068c3.974-19.759,0.705-28.537-4.113-33.526
			c1.383-1.17,3.269-2.424,5.591-3.546c4.568-2.207,9.596-3.28,13.791-2.947c6.117,0.487,10.923,2.825,13.9,6.76
			C158.309,134.563,159.313,141.179,157.744,149.113z"/>
	</g>
</g>
<g>
	<g>
		<path d="M254.457,218.664c18.73-22.477,29.004-50.242,29.004-78.596c0-34.754-14.825-67.392-41.742-91.902
			c-26.74-24.347-62.249-37.756-99.987-37.756S68.482,23.818,41.742,48.166C14.824,72.675,0,105.313,0,140.068
			c0,34.754,14.824,67.393,41.742,91.901c26.74,24.348,62.249,37.757,99.987,37.757c23.599,0,46.857-5.387,67.471-15.605
			l49.396,18.498c0.775,0.29,1.583,0.432,2.384,0.432c1.683,0,3.337-0.624,4.616-1.805c1.889-1.742,2.633-4.398,1.928-6.869
			L254.457,218.664z M211.169,240.328c-1.811-0.678-3.822-0.553-5.537,0.342c-19.344,10.107-41.441,15.449-63.903,15.449
			c-70.646,0-128.122-52.06-128.122-116.05c0-63.991,57.476-116.052,128.122-116.052c70.648,0,128.123,52.06,128.123,116.05
			c0,26.626-9.696,51.676-28.042,72.441c-1.537,1.738-2.082,4.143-1.443,6.373l10.364,36.262L211.169,240.328z"/>
	</g>
</g>
</svg>
