<?xml version="1.0" encoding="utf-8"?>
<!-- Generator: Adobe Illustrator 21.1.0, SVG Export Plug-In . SVG Version: 6.00 Build 0)  -->
<svg version="1.1" id="Capa_1" xmlns="http://www.w3.org/2000/svg" xmlns:xlink="http://www.w3.org/1999/xlink" x="0px" y="0px"
	 viewBox="56.5 0 398.121 512" style="enable-background:new 56.5 0 398.121 512;" xml:space="preserve">
<g>
	<path d="M449.766,107.582l-6.807-6.806l-89.114-89.115l-6.806-6.806C343.958,1.774,339.685,0,335.315,0H79.122
		C68.652,0,57.379,8.086,57.379,25.83v318.446v145.982v4.087c0,7.389,7.433,14.592,16.225,16.86
		c0.441,0.115,0.865,0.283,1.324,0.371C76.306,511.85,77.71,512,79.122,512h353.756c1.413,0,2.816-0.15,4.193-0.424
		c0.459-0.088,0.883-0.256,1.324-0.371c8.792-2.269,16.226-9.472,16.226-16.86v-4.087V344.275V123.392
		C454.621,116.621,453.809,111.625,449.766,107.582z M423.15,105.931h-74.461V31.47L423.15,105.931z M79.122,494.345
		c-0.626,0-1.192-0.229-1.748-0.433c-1.377-0.653-2.339-2.03-2.339-3.654V361.932h361.931v128.326c0,1.624-0.963,2.992-2.34,3.654
		c-0.556,0.203-1.121,0.433-1.748,0.433H79.122z M75.035,344.275V25.83c0-1.915,0.291-8.174,4.087-8.174h252.425
		c-0.292,1.112-0.513,2.26-0.513,3.452v102.479h102.48c1.192,0,2.331-0.221,3.443-0.512c0,0.132,0.009,0.186,0.009,0.318v220.883
		H75.035z"/>
	<path d="M194.578,394.981c-2.939-2.409-6.259-4.229-9.958-5.429c-3.699-1.209-7.441-1.811-11.22-1.811h-25.583v88.947h14.486
		v-32.105h10.743c4.661,0,8.933-0.68,12.791-2.048c3.857-1.369,7.159-3.302,9.896-5.791c2.737-2.489,4.864-5.57,6.4-9.234
		c1.527-3.663,2.295-7.741,2.295-12.253c0-4.264-0.909-8.104-2.719-11.528C199.901,400.305,197.517,397.4,194.578,394.981z
		 M189.087,424.368c-0.892,2.454-2.048,4.361-3.496,5.729c-1.448,1.368-3.037,2.357-4.767,2.957
		c-1.73,0.601-3.487,0.909-5.252,0.909h-13.276v-35.239h10.858c3.699,0,6.673,0.582,8.933,1.748
		c2.251,1.165,3.999,2.613,5.253,4.343c1.245,1.73,2.066,3.54,2.472,5.429c0.397,1.89,0.601,3.558,0.601,5.006
		C190.411,418.878,189.97,421.914,189.087,424.368z"/>
	<path d="M282.076,400.772c-3.742-3.937-8.447-7.106-14.123-9.472c-5.677-2.366-12.253-3.558-19.73-3.558h-26.792v88.946H255.1
		c1.121,0,2.852-0.141,5.19-0.424c2.331-0.282,4.908-0.918,7.724-1.933c2.816-1.007,5.73-2.517,8.749-4.529
		c3.019-2.013,5.729-4.767,8.147-8.272c2.419-3.504,4.405-7.848,5.977-13.038c1.571-5.19,2.357-11.449,2.357-18.768
		c0-5.314-0.928-10.486-2.772-15.51C288.609,409.203,285.819,404.719,282.076,400.772z M271.52,456.651
		c-4.344,6.276-11.424,9.41-21.24,9.41h-14.363v-67.347h8.448c6.921,0,12.553,0.91,16.896,2.72c4.343,1.81,7.785,4.185,10.318,7.124
		c2.534,2.939,4.238,6.215,5.129,9.834c0.883,3.619,1.324,7.282,1.324,10.981C278.033,441.282,275.862,450.384,271.52,456.651z"/>
	<polygon points="314.244,476.69 328.969,476.69 328.969,436.621 366.142,436.621 366.142,426.726 328.969,426.726 328.969,398.725 
		369.876,398.725 369.876,387.742 314.244,387.742 	"/>
	<path d="M339.227,202.69c-8.112,0-18.07,1.059-29.644,3.16c-16.154-17.143-33.015-42.178-44.915-66.754
		c11.803-49.69,5.897-56.726,3.293-60.045c-2.771-3.531-6.682-9.26-11.131-9.26c-1.863,0-6.948,0.847-8.969,1.518
		c-5.084,1.695-7.821,5.615-10.01,10.726c-6.241,14.592,2.322,39.468,11.131,58.642c-7.53,29.952-20.162,65.801-33.439,94.896
		c-33.457,15.325-51.226,30.376-52.833,44.738c-0.583,5.227,0.653,12.898,9.843,19.792c2.516,1.88,5.464,2.878,8.536,2.878l0,0
		c7.724,0,15.528-5.914,24.559-18.6c6.585-9.252,13.656-21.866,21.036-37.526c23.64-10.337,52.887-19.677,77.93-24.911
		c13.948,13.391,26.439,20.171,37.173,20.171c7.91,0,14.689-3.637,19.598-10.514c5.111-7.159,6.276-13.568,3.442-19.067
		C361.428,205.921,353.051,202.69,339.227,202.69z M181.283,288.08c-4.131-3.17-3.893-5.307-3.805-6.109
		c0.547-4.908,8.236-13.621,27.101-24.223C190.279,284.16,182.599,287.664,181.283,288.08z M253.669,85.733
		c0.38-0.123,9.225,9.719,0.848,28.39C241.929,101.244,252.804,86.025,253.669,85.733z M235.423,227.205
		c8.96-21.354,17.293-44.933,23.604-66.772c9.914,17.814,21.822,35.099,33.74,48.94
		C273.929,213.795,253.873,220.037,235.423,227.205z M349.308,222.976c-2.719,3.805-8.616,3.893-10.682,3.893
		c-4.705,0-6.462-2.798-13.656-8.334c5.933-0.759,11.529-0.953,15.987-0.953c7.848,0,9.286,1.156,10.372,1.739
		C351.135,219.948,350.623,221.131,349.308,222.976z"/>
</g>
</svg>
