<?xml version="1.0" encoding="utf-8"?>
<!-- Generator: Adobe Illustrator 21.1.0, SVG Export Plug-In . SVG Version: 6.00 Build 0)  -->
<svg version="1.1" id="Capa_1" xmlns="http://www.w3.org/2000/svg" xmlns:xlink="http://www.w3.org/1999/xlink" x="0px" y="0px"
	 viewBox="31.767 0 219.926 283.461" style="enable-background:new 31.767 0 219.926 283.461;" xml:space="preserve">
<style type="text/css">
	.st0{fill:#C5A367;}
</style>
<g>
	<path class="st0" d="M249.005,59.561l-3.764-3.763l0,0L195.9,6.456c0,0-0.004-0.005-0.01-0.005l-3.753-3.753
		C190.431,0.982,188.061,0,185.642,0H43.804c-6.637,0-12.037,5.396-12.037,12.037v178.566v80.82c0,6.641,5.4,12.037,12.037,12.037
		h195.852c6.637,0,12.037-5.396,12.037-12.037v-80.82V66.051C251.693,63.603,250.74,61.301,249.005,59.561z M234.27,58.647h-41.224
		V17.423L234.27,58.647z M241.918,271.423c0,1.246-1.017,2.262-2.263,2.262H43.804c-1.246,0-2.263-1.016-2.263-2.262v-71.047
		h200.377V271.423z M41.541,190.603V12.037c0-1.246,1.017-2.263,2.263-2.263h139.751c-0.161,0.616-0.284,1.251-0.284,1.916v56.731
		h56.736c0.66,0,1.295-0.122,1.911-0.284v122.465H41.541z"/>
	<path class="st0" d="M90.81,246.136h5.948c2.58,0,4.946-0.377,7.082-1.134c2.136-0.758,3.963-1.828,5.479-3.206
		c1.515-1.379,2.693-3.084,3.543-5.112c0.846-2.028,1.271-4.286,1.271-6.783c0-2.36-0.503-4.487-1.505-6.383
		c-1.002-1.896-2.316-3.509-3.944-4.843c-1.627-1.335-3.465-2.342-5.513-3.006c-2.047-0.67-4.12-1.002-6.212-1.002H82.79v49.244
		h8.02V246.136z M90.81,220.748h6.011c2.047,0,3.695,0.322,4.946,0.967c1.246,0.645,2.214,1.447,2.908,2.404
		c0.69,0.959,1.144,1.961,1.369,3.006c0.22,1.046,0.332,1.97,0.332,2.771c0,2.004-0.244,3.686-0.733,5.043
		c-0.494,1.359-1.134,2.414-1.936,3.172c-0.801,0.758-1.681,1.305-2.639,1.638c-0.958,0.333-1.931,0.503-2.908,0.503h-7.35V220.748z
		"/>
	<path class="st0" d="M131.237,246.136h5.948c2.58,0,4.946-0.377,7.082-1.134c2.135-0.758,3.963-1.828,5.479-3.206
		c1.515-1.379,2.692-3.084,3.543-5.112c0.846-2.028,1.271-4.286,1.271-6.783c0-2.36-0.503-4.487-1.505-6.383
		c-1.002-1.896-2.316-3.509-3.944-4.843c-1.628-1.335-3.466-2.342-5.513-3.006c-2.048-0.67-4.12-1.002-6.212-1.002h-14.163v49.244
		h8.02v-17.775H131.237z M131.237,220.748h6.011c2.048,0,3.695,0.322,4.946,0.967c1.246,0.645,2.213,1.447,2.908,2.404
		c0.689,0.959,1.143,1.961,1.368,3.006c0.221,1.046,0.332,1.97,0.332,2.771c0,2.004-0.244,3.686-0.732,5.043
		c-0.494,1.359-1.134,2.414-1.936,3.172c-0.801,0.758-1.682,1.305-2.639,1.638c-0.958,0.333-1.931,0.503-2.908,0.503h-7.35V220.748z
		"/>
	<polygon class="st0" points="175.667,263.912 183.755,263.912 183.755,220.146 198.451,220.146 198.451,214.667 160.971,214.667 
		160.971,220.146 175.667,220.146 	"/>
	<circle class="st0" cx="100.188" cy="92.857" r="4.887"/>
	<circle class="st0" cx="100.188" cy="131.956" r="4.887"/>
	<circle class="st0" cx="100.188" cy="112.407" r="4.887"/>
	<circle class="st0" cx="109.963" cy="102.632" r="4.887"/>
	<circle class="st0" cx="119.737" cy="92.857" r="4.887"/>
	<circle class="st0" cx="109.963" cy="122.181" r="4.887"/>
	<circle class="st0" cx="119.737" cy="131.956" r="4.887"/>
	<circle class="st0" cx="119.737" cy="112.407" r="4.887"/>
	<circle class="st0" cx="129.512" cy="102.632" r="4.887"/>
	<circle class="st0" cx="139.286" cy="92.857" r="4.887"/>
	<circle class="st0" cx="129.512" cy="122.181" r="4.887"/>
	<circle class="st0" cx="139.286" cy="131.956" r="4.887"/>
	<circle class="st0" cx="139.286" cy="112.407" r="4.887"/>
	<circle class="st0" cx="149.061" cy="102.632" r="4.888"/>
	<circle class="st0" cx="158.835" cy="92.857" r="4.887"/>
	<circle class="st0" cx="149.061" cy="122.181" r="4.887"/>
	<circle class="st0" cx="158.835" cy="131.956" r="4.887"/>
	<circle class="st0" cx="158.835" cy="112.407" r="4.887"/>
	<circle class="st0" cx="168.61" cy="102.632" r="4.888"/>
	<circle class="st0" cx="178.384" cy="92.857" r="4.887"/>
	<circle class="st0" cx="168.61" cy="122.181" r="4.887"/>
	<circle class="st0" cx="178.384" cy="131.956" r="4.887"/>
	<circle class="st0" cx="178.384" cy="112.407" r="4.887"/>
	<path class="st0" d="M144.173,63.534c0-2.703-2.189-4.887-4.887-4.887c-2.698,0-4.887,2.185-4.887,4.887v9.774H80.64v78.196h30.467
		l-10.219,17.032c-1.388,2.316-0.64,5.317,1.676,6.705c0.782,0.475,1.652,0.699,2.507,0.699c1.662,0,3.279-0.846,4.193-2.371
		l13.239-22.065h33.566l13.238,22.065c0.914,1.525,2.532,2.371,4.193,2.371c0.855,0,1.726-0.225,2.513-0.699
		c2.316-1.388,3.064-4.389,1.677-6.705l-10.225-17.032h30.467V73.309h-53.76V63.534z M163.722,83.083
		c0,2.698,2.189,4.887,4.888,4.887c2.698,0,4.888-2.189,4.888-4.887h9.773c0,2.698,2.189,4.887,4.888,4.887v9.774
		c-2.698,0-4.888,2.189-4.888,4.887c0,2.698,2.189,4.888,4.888,4.888v9.774c-2.698,0-4.888,2.189-4.888,4.887
		c0,2.698,2.189,4.887,4.888,4.887v9.774c-2.698,0-4.888,2.189-4.888,4.887h-9.773c0-2.698-2.189-4.887-4.888-4.887
		c-2.698,0-4.888,2.189-4.888,4.887h-9.773c0-2.698-2.189-4.887-4.888-4.887c-2.698,0-4.888,2.189-4.888,4.887h-9.774
		c0-2.698-2.189-4.887-4.887-4.887c-2.698,0-4.887,2.189-4.887,4.887h-9.774c0-2.698-2.189-4.887-4.887-4.887
		c-2.698,0-4.887,2.189-4.887,4.887h-9.774c0-2.698-2.189-4.887-4.887-4.887v-9.774c2.698,0,4.887-2.189,4.887-4.887
		c0-2.698-2.189-4.887-4.887-4.887v-9.774c2.698,0,4.887-2.19,4.887-4.888c0-2.698-2.189-4.887-4.887-4.887V87.97
		c2.698,0,4.887-2.189,4.887-4.887h9.774c0,2.698,2.189,4.887,4.887,4.887c2.698,0,4.887-2.189,4.887-4.887h9.774
		c0,2.698,2.19,4.887,4.887,4.887c2.698,0,4.887-2.189,4.887-4.887h9.774c0,2.698,2.189,4.887,4.888,4.887
		c2.698,0,4.888-2.189,4.888-4.887H163.722z"/>
</g>
</svg>
